<!DOCTYPE svg PUBLIC "-//W3C//DTD SVG 20010904//EN" "http://www.w3.org/TR/2001/REC-SVG-20010904/DTD/svg10.dtd">
<svg version="1.0" xmlns="http://www.w3.org/2000/svg" width="260px" height="110px" viewBox="0 0 2600 1100" preserveAspectRatio="xMidYMid meet">
<g id="layer1" fill="#cccccc" stroke="none">
 <path d="M667 784 c-4 -4 -7 -115 -7 -246 0 -141 -4 -247 -10 -258 -13 -24 4 -35 21 -13 11 12 15 72 17 261 3 223 -2 275 -21 256z"/>
 <path d="M705 779 c-10 -26 -1 -554 10 -554 14 0 19 545 5 559 -6 6 -11 4 -15 -5z"/>
 <path d="M835 778 c-10 -25 -1 -208 10 -208 13 0 19 200 6 213 -7 7 -12 5 -16 -5z"/>
 <path d="M976 782 c-4 -6 -9 -179 -7 -216 1 -5 8 -3 16 4 11 10 15 36 15 111 0 87 -9 125 -24 101z"/>
 <path d="M1105 778 c-10 -25 -1 -223 10 -223 13 0 19 215 6 228 -7 7 -12 5 -16 -5z"/>
 <path d="M1145 779 c-10 -26 -1 -554 10 -554 14 0 19 545 5 559 -6 6 -11 4 -15 -5z"/>
 <path d="M1485 778 c-9 -24 -1 -143 10 -143 13 0 19 135 6 148 -7 7 -12 5 -16 -5z"/>
 <path d="M1945 779 c-10 -26 -1 -554 10 -554 14 0 19 545 5 559 -6 6 -11 4 -15 -5z"/>
 <path d="M1984 777 c-3 -8 -4 -122 -2 -254 2 -184 6 -244 17 -256 17 -22 34 -11 21 13 -6 11 -10 117 -10 259 0 150 -4 242 -10 246 -6 3 -13 0 -16 -8z"/>
 <path d="M2115 778 c-10 -25 -1 -223 10 -223 13 0 19 215 6 228 -7 7 -12 5 -16 -5z"/>
 <path d="M1851 766 c-7 -8 -8 -17 -3 -20 6 -3 15 1 21 8 7 8 8 17 3 20 -6 3 -15 -1 -21 -8z"/>
 <path d="M1821 726 c-7 -8 -8 -17 -3 -20 6 -3 15 1 21 8 7 8 8 17 3 20 -6 3 -15 -1 -21 -8z"/>
 <path d="M1791 686 c-7 -8 -8 -17 -3 -20 6 -3 15 1 21 8 7 8 8 17 3 20 -6 3 -15 -1 -21 -8z"/>
 <path d="M1761 646 c-7 -8 -8 -17 -3 -20 6 -3 15 1 21 8 7 8 8 17 3 20 -6 3 -15 -1 -21 -8z"/>
 <path d="M1275 638 c-9 -22 -2 -68 10 -71 14 -3 19 63 6 76 -7 7 -12 5 -16 -5z"/>
 <path d="M1731 606 c-7 -8 -8 -17 -3 -20 6 -3 15 1 21 8 7 8 8 17 3 20 -6 3 -15 -1 -21 -8z"/>
 <path d="M1701 566 c-7 -8 -8 -17 -3 -20 6 -3 15 1 21 8 7 8 8 17 3 20 -6 3 -15 -1 -21 -8z"/>
 <path d="M1086 531 c-4 -5 -2 -12 3 -15 5 -4 12 -2 15 3 4 5 2 12 -3 15 -5 4 -12 2 -15 -3z"/>
 <path d="M1665 520 c-13 -14 -15 -24 -8 -31 7 -7 15 -2 26 15 21 31 6 43 -18 16z"/>
 <path d="M1807 516 c-21 -31 -6 -43 18 -16 13 14 15 24 8 31 -7 7 -15 2 -26 -15z"/>
 <path d="M1086 491 c-4 -5 -2 -12 3 -15 5 -4 12 -2 15 3 4 5 2 12 -3 15 -5 4 -12 2 -15 -3z"/>
 <path d="M1746 433 c-30 -41 -39 -72 -18 -59 20 12 71 95 62 101 -5 3 -25 -16 -44 -42z"/>
 <path d="M835 448 c-11 -29 -1 -83 15 -83 11 0 14 10 12 40 -4 45 -18 67 -27 43z"/>
 <path d="M968 455 c-8 -9 6 -66 17 -68 16 -3 18 48 2 61 -8 7 -16 9 -19 7z"/>
 <path d="M1275 448 c-9 -23 -2 -83 10 -83 14 0 19 75 6 88 -7 7 -12 5 -16 -5z"/>
 <path d="M1105 438 c-9 -24 -1 -128 10 -131 13 -3 19 123 6 136 -7 7 -12 5 -16 -5z"/>
 <path d="M2115 428 c-11 -28 -1 -73 15 -73 11 0 14 9 12 35 -4 41 -19 61 -27 38z"/>
 <path d="M1485 368 c-9 -24 -1 -143 10 -143 13 0 19 135 6 148 -7 7 -12 5 -16 -5z"/>
 <path d="M1688 352 c-24 -27 -29 -40 -19 -46 5 -4 19 7 30 23 23 32 13 52 -11 23z"/>
 <path d="M246 333 c-22 -23 46 -125 73 -109 8 5 2 16 -19 36 -16 15 -30 37 -30 48 0 22 -13 36 -24 25z"/>
 <path d="M2396 296 c-8 -19 -24 -40 -36 -46 -17 -9 -19 -15 -10 -23 8 -9 20 -3 46 25 34 38 42 62 24 73 -5 3 -16 -10 -24 -29z"/>
 <path d="M1626 268 c-13 -18 -22 -36 -20 -40 7 -11 19 -2 44 32 28 40 7 48 -24 8z"/>
 <path d="M1035 241 c-7 -12 12 -24 25 -16 11 7 4 25 -10 25 -5 0 -11 -4 -15 -9z"/>
 </g>
<g id="layer2" fill="#000000" stroke="none">
 <path d="M257 784 c-4 -4 -7 -115 -7 -246 0 -260 4 -283 55 -306 39 -18 288 -16 324 3 48 24 52 49 49 310 l-3 240 -65 0 -65 0 -3 -107 -3 -108 -74 0 -74 0 -3 108 -3 107 -60 3 c-34 2 -64 0 -68 -4z m283 -389 c0 -24 -2 -25 -75 -25 -73 0 -75 1 -75 25 0 24 2 25 75 25 73 0 75 -1 75 -25z"/>
 <path d="M715 778 c-3 -7 -4 -135 -3 -283 l3 -270 173 0 174 0 29 33 c27 30 29 38 29 116 0 67 -4 88 -19 107 -18 23 -18 24 1 49 16 23 18 41 16 140 l-3 115 -65 0 -65 0 -3 -102 -3 -103 -64 0 -64 0 -3 103 -3 102 -63 3 c-44 2 -64 -1 -67 -10z m265 -362 c0 -29 -16 -36 -81 -36 -48 0 -49 1 -49 30 l0 30 65 0 c62 0 65 -1 65 -24z"/>
 <path d="M1155 778 c-3 -7 -4 -135 -3 -283 l3 -270 170 0 170 0 0 75 0 75 -102 3 -103 3 0 29 0 29 73 3 72 3 0 65 0 65 -72 3 c-70 3 -73 4 -73 27 0 24 2 24 103 27 l102 3 0 75 0 75 -168 3 c-129 2 -169 0 -172 -10z"/>
 <path d="M1535 778 c-3 -7 -4 -135 -3 -283 l3 -270 37 -3 c35 -3 39 0 95 75 32 43 79 107 103 142 l45 64 5 -139 5 -139 65 0 65 0 0 280 0 280 -40 3 -41 3 -99 -135 -100 -135 -5 132 -5 132 -63 3 c-44 2 -64 -1 -67 -10z"/>
 <path d="M1997 784 c-4 -4 -7 -115 -7 -246 0 -260 4 -283 55 -306 39 -18 288 -16 324 3 48 24 52 49 49 310 l-3 240 -65 0 -65 0 -3 -107 -3 -108 -74 0 -74 0 -3 108 -3 107 -60 3 c-34 2 -64 0 -68 -4z m283 -389 c0 -24 -2 -25 -75 -25 -73 0 -75 1 -75 25 0 24 2 25 75 25 73 0 75 -1 75 -25z"/>
 </g>
<g id="layer3" fill="#ffffff" stroke="none">
 <path d="M0 550 l0 -550 1300 0 1300 0 0 550 0 550 -1300 0 -1300 0 0 -550z m372 113 l3 -108 90 0 90 0 3 108 3 107 54 0 55 0 0 -229 c0 -126 -4 -241 -9 -254 -15 -40 -53 -48 -215 -45 -197 4 -183 -20 -178 291 l3 237 49 0 49 0 3 -107z m470 5 l3 -103 58 -3 c82 -4 87 2 87 114 l0 94 60 0 60 0 0 -103 c0 -109 -2 -114 -55 -152 -20 -15 -20 -15 3 -21 54 -15 73 -151 29 -215 l-23 -34 -172 -3 -172 -2 0 265 0 265 60 0 59 0 3 -102z m648 42 l0 -59 -102 -3 -103 -3 0 -40 0 -40 68 -3 67 -3 0 -49 0 -49 -67 -3 -68 -3 0 -45 0 -45 103 -3 102 -3 0 -59 0 -60 -165 0 -165 0 0 265 0 265 165 0 165 0 0 -60z m160 -68 c0 -71 3 -131 6 -135 8 -7 54 22 54 34 0 5 37 59 82 119 80 106 84 110 120 110 l38 0 0 -265 0 -265 -55 0 -55 0 0 133 c0 74 -3 136 -6 140 -8 8 -54 -22 -54 -35 0 -11 -98 -148 -113 -159 -4 -3 -16 -21 -26 -40 -15 -28 -25 -35 -55 -37 l-36 -3 0 265 0 266 50 0 50 0 0 -128z m472 21 l3 -108 85 0 85 0 3 108 3 107 49 0 49 0 3 -237 c4 -311 19 -287 -178 -291 -162 -3 -200 5 -215 45 -5 13 -9 128 -9 254 l0 229 60 0 59 0 3 -107z"/>
 <path d="M377 434 c-11 -12 -8 -59 5 -72 7 -7 41 -12 84 -12 80 0 98 11 92 57 -3 28 -3 28 -88 31 -47 1 -89 0 -93 -4z"/>
 <path d="M847 453 c-12 -11 -8 -68 5 -81 15 -15 92 -16 119 -2 22 12 26 59 7 78 -13 13 -120 17 -131 5z"/>
 <path d="M2127 434 c-12 -13 -8 -61 7 -73 9 -7 42 -11 88 -9 l73 3 0 40 0 40 -80 3 c-45 1 -84 0 -88 -4z"/>
 </g>

</svg>