<!DOCTYPE svg PUBLIC "-//W3C//DTD SVG 20010904//EN" "http://www.w3.org/TR/2001/REC-SVG-20010904/DTD/svg10.dtd">
<svg version="1.0" xmlns="http://www.w3.org/2000/svg" width="260px" height="110px" viewBox="0 0 2600 1100" preserveAspectRatio="xMidYMid meet">
<g id="layer1" fill="#cecece" stroke="none">
 <path d="M1065 839 c-10 -26 -1 -554 10 -554 14 0 19 545 5 559 -6 6 -11 4 -15 -5z"/>
 <path d="M1195 838 c-10 -25 -1 -208 10 -208 13 0 19 200 6 213 -7 7 -12 5 -16 -5z"/>
 <path d="M1505 838 c-9 -24 -1 -143 10 -143 13 0 19 135 6 148 -7 7 -12 5 -16 -5z"/>
 <path d="M1835 840 c-3 -6 5 -14 18 -19 42 -16 53 -54 47 -161 -3 -52 -8 -99 -10 -105 -11 -22 16 -16 27 6 15 28 17 185 3 194 -5 3 -7 12 -4 20 4 8 -7 28 -24 45 -32 31 -47 37 -57 20z"/>
 <path d="M1775 687 c-9 -22 -2 -62 10 -60 6 1 11 14 13 29 4 32 -14 56 -23 31z"/>
 <path d="M965 628 c-10 -24 -1 -123 10 -121 14 4 19 113 6 126 -7 7 -12 5 -16 -5z"/>
 <path d="M1447 604 c-3 -4 -2 -14 3 -24 13 -25 14 -213 1 -238 -6 -11 -7 -23 -2 -26 10 -6 33 17 30 30 -1 5 1 17 5 26 14 32 3 206 -15 223 -8 8 -18 13 -22 9z"/>
 <path d="M1510 566 c-19 -24 -10 -205 13 -239 24 -37 42 -25 21 14 -11 22 -15 56 -13 130 1 55 -1 102 -3 105 -3 2 -11 -2 -18 -10z"/>
 <path d="M1195 508 c-11 -29 -1 -83 15 -83 11 0 14 10 12 40 -4 45 -18 67 -27 43z"/>
 <path d="M1328 515 c-8 -9 6 -66 17 -68 16 -3 18 48 2 61 -8 7 -16 9 -19 7z"/>
 <path d="M1636 503 c-14 -14 -5 -63 13 -73 11 -5 72 -10 135 -10 l115 0 3 -65 c2 -36 8 -65 13 -65 15 0 18 129 4 146 -9 11 -41 14 -135 14 l-124 0 0 24 c0 26 -12 40 -24 29z"/>
 <path d="M1395 301 c-7 -12 12 -24 25 -16 11 7 4 25 -10 25 -5 0 -11 -4 -15 -9z"/>
 </g>
<g id="layer2" fill="#000000" stroke="none">
 <path d="M695 838 c-3 -7 -4 -135 -3 -283 l3 -270 170 0 170 0 0 75 0 75 -102 3 -103 3 0 29 0 29 73 3 72 3 0 65 0 65 -72 3 -72 3 -3 102 -3 102 -63 3 c-44 2 -64 -1 -67 -10z"/>
 <path d="M1075 838 c-3 -7 -4 -135 -3 -283 l3 -270 173 0 174 0 29 33 c28 31 29 35 29 138 0 164 -19 184 -175 184 l-94 0 -3 103 -3 102 -63 3 c-44 2 -64 -1 -67 -10z m265 -362 c0 -29 -16 -36 -81 -36 -48 0 -49 1 -49 30 l0 30 65 0 c62 0 65 -1 65 -24z"/>
 <path d="M1514 837 c-3 -8 -4 -43 -2 -78 l3 -64 133 -3 132 -3 0 -28 0 -29 -110 -4 c-148 -4 -154 -9 -158 -152 -3 -81 0 -111 12 -135 29 -55 57 -62 233 -59 l158 3 0 75 0 75 -130 5 -130 5 -3 28 -3 27 95 0 c52 0 106 4 120 10 45 17 58 60 54 176 -3 98 -5 105 -31 131 l-27 28 -170 3 c-140 3 -171 1 -176 -11z"/>
 </g>
<g id="layer3" fill="#ffffff" stroke="none">
 <path d="M0 550 l0 -550 1300 0 1300 0 0 550 0 550 -1300 0 -1300 0 0 -550z m812 178 l3 -103 78 -3 77 -3 0 -49 0 -49 -77 -3 -78 -3 0 -45 0 -45 103 -3 102 -3 0 -59 0 -60 -155 0 -155 0 0 265 0 265 50 0 49 0 3 -102z m390 0 l3 -103 105 -5 c58 -3 115 -11 127 -18 29 -16 37 -60 31 -172 -6 -129 -6 -129 -220 -130 l-168 0 0 265 0 265 60 0 59 0 3 -102z m677 83 c24 -24 35 -89 29 -181 -5 -99 -12 -104 -151 -110 l-112 -5 0 -40 0 -40 133 -3 132 -3 0 -64 0 -65 -152 0 c-227 0 -238 8 -238 169 1 128 7 135 152 141 l113 5 0 45 0 45 -132 3 -133 3 0 59 0 60 170 0 c155 0 172 -2 189 -19z"/>
 <path d="M1207 513 c-12 -11 -8 -68 5 -81 15 -15 92 -16 119 -2 22 12 26 59 7 78 -13 13 -120 17 -131 5z"/>
 </g>

</svg>