<!DOCTYPE svg PUBLIC "-//W3C//DTD SVG 20010904//EN" "http://www.w3.org/TR/2001/REC-SVG-20010904/DTD/svg10.dtd">
<svg version="1.0" xmlns="http://www.w3.org/2000/svg" width="260px" height="110px" viewBox="0 0 2600 1100" preserveAspectRatio="xMidYMid meet">
<g id="layer1" fill="#cdcdcd" stroke="none">
 <path d="M375 779 c-10 -26 -1 -249 10 -249 14 0 19 240 6 253 -7 7 -12 5 -16 -4z"/>
 <path d="M566 779 c-55 -153 -66 -193 -57 -202 12 -12 9 -19 51 107 19 58 27 93 20 100 -6 6 -11 4 -14 -5z"/>
 <path d="M688 784 c-7 -6 50 -184 63 -198 6 -6 13 -6 20 1 9 9 6 23 -9 55 -11 24 -26 62 -33 86 -12 42 -31 67 -41 56z"/>
 <path d="M949 761 c-31 -31 -36 -46 -19 -56 6 -3 14 5 20 20 5 14 21 30 35 35 15 6 23 14 20 20 -10 17 -25 12 -56 -19z"/>
 <path d="M1255 780 c-3 -5 8 -16 24 -25 37 -18 50 -3 16 19 -28 19 -32 19 -40 6z"/>
 <path d="M1355 779 c-10 -26 -1 -554 10 -554 14 0 19 545 5 559 -6 6 -11 4 -15 -5z"/>
 <path d="M1685 781 c-7 -12 12 -24 25 -16 11 7 4 25 -10 25 -5 0 -11 -4 -15 -9z"/>
 <path d="M1737 754 c-3 -4 -1 -16 5 -27 5 -11 11 -53 12 -93 0 -41 6 -75 11 -76 12 -3 19 117 9 141 -4 9 -6 21 -5 27 2 14 -24 36 -32 28z"/>
 <path d="M1314 716 c-4 -10 -2 -22 4 -28 8 -8 13 -7 18 6 4 10 2 22 -4 28 -8 8 -13 7 -18 -6z"/>
 <path d="M1176 642 c-3 -6 1 -15 8 -21 8 -7 17 -8 20 -3 3 6 -1 15 -8 21 -8 7 -17 8 -20 3z"/>
 <path d="M1485 638 c-9 -22 -2 -68 10 -71 14 -3 19 63 6 76 -7 7 -12 5 -16 -5z"/>
 <path d="M626 632 c-3 -5 -35 -94 -71 -198 -42 -121 -62 -191 -55 -198 11 -11 12 -9 83 197 28 81 54 144 58 140 3 -5 26 -66 49 -138 56 -170 69 -200 81 -188 6 6 -14 77 -52 189 -60 174 -80 216 -93 196z"/>
 <path d="M1627 633 c-5 -8 -10 -51 -8 -67 2 -19 31 18 31 40 0 23 -15 41 -23 27z"/>
 <path d="M1736 531 c-4 -5 -2 -12 3 -15 5 -4 12 -2 15 3 4 5 2 12 -3 15 -5 4 -12 2 -15 -3z"/>
 <path d="M1736 491 c-4 -5 -2 -12 3 -15 5 -4 12 -2 15 3 4 5 2 12 -3 15 -5 4 -12 2 -15 -3z"/>
 <path d="M1485 448 c-11 -29 -1 -83 15 -83 11 0 14 10 12 40 -4 45 -18 67 -27 43z"/>
 <path d="M1618 455 c-8 -9 6 -66 17 -68 16 -3 18 48 2 61 -8 7 -16 9 -19 7z"/>
 <path d="M1755 438 c-9 -24 -1 -128 10 -131 13 -3 19 123 6 136 -7 7 -12 5 -16 -5z"/>
 <path d="M1190 394 c-9 -10 -10 -18 -3 -25 8 -8 14 -5 22 9 13 25 -2 38 -19 16z"/>
 <path d="M1046 392 c-3 -6 1 -15 8 -21 8 -7 17 -8 20 -3 3 6 -1 15 -8 21 -8 7 -17 8 -20 3z"/>
 <path d="M1314 326 c-3 -8 -7 -21 -8 -29 -1 -8 -8 -22 -14 -30 -8 -9 -9 -18 -4 -21 11 -6 35 18 27 26 -3 3 1 11 10 18 8 7 15 18 15 26 0 19 -19 27 -26 10z"/>
 <path d="M925 310 c-4 -6 -3 -16 3 -22 6 -6 12 -6 17 2 4 6 3 16 -3 22 -6 6 -12 6 -17 -2z"/>
 <path d="M1805 300 c-3 -5 -1 -18 4 -28 14 -27 38 -45 45 -34 3 6 -1 15 -9 22 -8 7 -15 18 -15 26 0 17 -17 27 -25 14z"/>
 <path d="M2206 282 c-8 -16 -25 -32 -38 -35 -17 -5 -20 -9 -11 -18 9 -9 18 -8 37 5 33 21 51 55 38 68 -7 7 -15 0 -26 -20z"/>
 <path d="M955 260 c-9 -14 44 -45 56 -33 7 7 1 15 -20 26 -17 8 -33 11 -36 7z"/>
 <path d="M1707 253 c-15 -8 -25 -18 -22 -24 9 -13 20 -11 46 9 28 24 13 33 -24 15z"/>
 </g>
<g id="layer2" fill="#000000" stroke="none">
 <path d="M385 778 c-3 -7 -4 -135 -3 -283 l3 -270 59 0 59 0 67 193 67 194 63 -184 c35 -100 68 -189 73 -196 7 -8 28 -12 61 -10 l51 3 0 280 0 280 -60 0 -60 0 -5 -85 -5 -85 -24 78 c-14 43 -30 82 -37 88 -7 5 -36 9 -66 7 l-53 -3 -27 -75 -26 -75 -4 75 -3 75 -63 3 c-44 2 -64 -1 -67 -10z"/>
 <path d="M985 781 c-11 -5 -29 -19 -40 -31 -19 -21 -20 -36 -20 -241 l0 -219 33 -32 32 -33 140 0 c139 0 140 0 167 28 l28 27 3 212 c2 117 1 223 -3 235 -3 13 -20 32 -38 43 -27 17 -50 20 -157 19 -69 0 -134 -4 -145 -8z m205 -266 c0 -63 1 -118 3 -122 1 -5 -28 -9 -65 -11 l-68 -3 0 119 c0 65 3 122 7 125 3 4 33 7 65 7 l58 0 0 -115z"/>
 <path d="M1365 778 c-3 -7 -4 -135 -3 -283 l3 -270 173 0 174 0 29 33 c27 30 29 38 29 116 0 67 -4 88 -19 107 -19 23 -19 24 0 48 15 19 19 40 19 107 0 78 -2 86 -29 116 l-29 33 -171 3 c-135 3 -172 1 -176 -10z m265 -173 c0 -24 -2 -25 -65 -25 -63 0 -65 1 -65 25 0 24 2 25 65 25 63 0 65 -1 65 -25z m0 -189 c0 -29 -16 -36 -81 -36 -48 0 -49 1 -49 30 l0 30 65 0 c62 0 65 -1 65 -24z"/>
 <path d="M1804 777 c-3 -8 -4 -123 -2 -256 l3 -243 33 -29 32 -29 143 0 c160 0 183 7 210 60 15 31 17 62 15 270 l-3 235 -65 0 -65 0 -3 -107 -3 -108 -79 0 -79 0 -3 108 -3 107 -63 3 c-46 2 -64 -1 -68 -11z m296 -382 c0 -25 -1 -25 -80 -25 -79 0 -80 0 -80 25 0 25 1 25 80 25 79 0 80 0 80 -25z"/>
 </g>
<g id="layer3" fill="#ffffff" stroke="none">
 <path d="M0 550 l0 -550 1300 0 1300 0 0 550 0 550 -1300 0 -1300 0 0 -550z m502 138 c2 -47 7 -83 13 -83 6 0 23 37 39 83 l28 82 57 0 57 0 23 -72 c12 -40 24 -79 27 -87 3 -11 7 -11 19 -1 11 9 15 33 15 86 l0 74 45 0 45 0 0 -266 0 -265 -47 3 -48 3 -61 178 c-34 98 -66 183 -72 189 -13 13 -11 19 -90 -209 l-56 -163 -48 0 -48 0 0 83 c0 46 -3 166 -7 265 l-6 182 56 0 56 0 3 -82z m794 57 c13 -20 16 -57 15 -232 0 -114 -3 -218 -7 -230 -9 -33 -54 -43 -190 -43 -121 0 -124 0 -149 27 l-25 28 0 217 c0 278 -15 258 190 258 148 0 150 0 166 -25z m433 4 c22 -18 25 -30 29 -102 4 -87 2 -93 -53 -132 -20 -15 -20 -15 3 -21 32 -9 52 -54 52 -119 0 -54 -20 -111 -44 -127 -6 -4 -86 -8 -178 -8 l-168 0 0 265 0 265 168 0 c153 -1 169 -2 191 -21z m193 -86 l3 -108 95 0 95 0 3 108 3 107 50 0 50 0 -1 -246 c-1 -231 -2 -246 -21 -265 -19 -19 -31 -20 -185 -17 -150 3 -167 5 -180 22 -11 16 -14 69 -14 263 l0 243 50 0 49 0 3 -107z"/>
 <path d="M1050 631 c-5 -11 -10 -69 -10 -129 0 -132 7 -142 93 -142 73 0 77 8 77 148 0 132 -7 142 -93 142 -45 0 -58 -4 -67 -19z"/>
 <path d="M1494 636 c-3 -8 -4 -27 -2 -43 3 -27 6 -28 61 -31 70 -4 89 9 85 52 -3 31 -3 31 -71 34 -52 2 -69 0 -73 -12z"/>
 <path d="M1497 453 c-12 -11 -8 -68 5 -81 15 -15 92 -16 119 -2 22 12 26 59 7 78 -13 13 -120 17 -131 5z"/>
 <path d="M1927 434 c-11 -12 -8 -59 5 -72 7 -7 42 -12 89 -12 85 0 103 10 97 57 l-3 28 -90 3 c-50 1 -94 0 -98 -4z"/>
 </g>

</svg>