<!DOCTYPE svg PUBLIC "-//W3C//DTD SVG 20010904//EN" "http://www.w3.org/TR/2001/REC-SVG-20010904/DTD/svg10.dtd">
<svg version="1.0" xmlns="http://www.w3.org/2000/svg" width="260px" height="110px" viewBox="0 0 2600 1100" preserveAspectRatio="xMidYMid meet">
<g id="layer1" fill="#cdcdcd" stroke="none">
 <path d="M155 809 c-10 -26 -1 -554 10 -554 14 0 19 545 5 559 -6 6 -11 4 -15 -5z"/>
 <path d="M285 808 c-10 -25 -1 -208 10 -208 13 0 19 200 6 213 -7 7 -12 5 -16 -5z"/>
 <path d="M426 812 c-4 -6 -9 -179 -7 -216 1 -5 8 -3 16 4 11 10 15 36 15 111 0 87 -9 125 -24 101z"/>
 <path d="M555 808 c-10 -25 -1 -223 10 -223 13 0 19 215 6 228 -7 7 -12 5 -16 -5z"/>
 <path d="M594 807 c-3 -8 -4 -122 -2 -254 2 -184 6 -244 17 -256 17 -22 34 -11 21 13 -6 11 -10 117 -10 259 0 150 -4 242 -10 246 -6 3 -13 0 -16 -8z"/>
 <path d="M725 808 c-10 -25 -1 -223 10 -223 13 0 19 215 6 228 -7 7 -12 5 -16 -5z"/>
 <path d="M1089 791 c-31 -31 -36 -46 -19 -56 6 -3 14 5 20 20 5 14 21 30 35 35 15 6 23 14 20 20 -10 17 -25 12 -56 -19z"/>
 <path d="M1615 809 c-10 -26 -1 -554 10 -554 14 0 19 545 5 559 -6 6 -11 4 -15 -5z"/>
 <path d="M1746 813 c-10 -10 -7 -291 3 -297 7 -5 57 59 213 271 5 6 5 14 0 17 -6 3 -51 -49 -101 -116 l-91 -122 0 122 c0 110 -6 143 -24 125z"/>
 <path d="M2475 809 c-10 -26 -1 -334 10 -332 14 4 19 323 6 336 -7 7 -12 5 -16 -4z"/>
 <path d="M2089 773 c-11 -12 -14 -65 -14 -238 0 -173 3 -226 14 -238 17 -22 34 -11 21 13 -6 11 -10 106 -10 225 0 119 4 214 10 225 13 24 -4 35 -21 13z"/>
 <path d="M2210 664 c-9 -10 -10 -18 -3 -25 8 -8 14 -5 22 9 13 25 -2 38 -19 16z"/>
 <path d="M2345 668 c-9 -22 -2 -68 10 -71 14 -3 19 63 6 76 -7 7 -12 5 -16 -5z"/>
 <path d="M1187 654 c-4 -4 -7 -60 -7 -124 0 -92 3 -120 15 -130 8 -7 15 -9 16 -4 0 5 0 63 -1 129 -1 112 -7 145 -23 129z"/>
 <path d="M536 561 c-4 -5 -2 -12 3 -15 5 -4 12 -2 15 3 4 5 2 12 -3 15 -5 4 -12 2 -15 -3z"/>
 <path d="M1887 528 c-14 -17 -23 -36 -20 -42 4 -5 15 2 26 15 10 13 24 24 31 24 6 0 11 6 11 14 0 27 -23 22 -48 -11z"/>
 <path d="M536 521 c-4 -5 -2 -12 3 -15 5 -4 12 -2 15 3 4 5 2 12 -3 15 -5 4 -12 2 -15 -3z"/>
 <path d="M285 478 c-11 -29 -1 -83 15 -83 11 0 14 10 12 40 -4 45 -18 67 -27 43z"/>
 <path d="M418 485 c-8 -9 6 -66 17 -68 16 -3 18 48 2 61 -8 7 -16 9 -19 7z"/>
 <path d="M555 468 c-9 -24 -1 -128 10 -131 13 -3 19 123 6 136 -7 7 -12 5 -16 -5z"/>
 <path d="M1816 433 c-30 -41 -39 -72 -18 -59 20 12 71 95 62 101 -5 3 -25 -16 -44 -42z"/>
 <path d="M725 458 c-11 -28 -1 -73 15 -73 11 0 14 9 12 35 -4 41 -19 61 -27 38z"/>
 <path d="M2205 430 c-4 -6 -3 -16 3 -22 6 -6 12 -6 17 2 4 6 3 16 -3 22 -6 6 -12 6 -17 -2z"/>
 <path d="M2475 398 c-9 -24 -1 -143 10 -143 13 0 19 135 6 148 -7 7 -12 5 -16 -5z"/>
 <path d="M1758 352 c-24 -27 -29 -40 -19 -46 5 -4 19 7 30 23 23 32 13 52 -11 23z"/>
 <path d="M1011 338 c-5 -13 -7 -27 -4 -31 6 -11 33 12 33 29 0 24 -20 26 -29 2z"/>
 <path d="M1066 332 c-17 -28 54 -96 76 -74 8 8 4 14 -15 21 -15 6 -27 14 -27 19 0 18 -27 45 -34 34z"/>
 <path d="M1711 286 c-7 -8 -8 -17 -3 -20 6 -3 15 1 21 8 7 8 8 17 3 20 -6 3 -15 -1 -21 -8z"/>
 <path d="M965 276 c-14 -10 -15 -15 -6 -21 8 -4 19 -1 28 8 20 19 1 30 -22 13z"/>
 <path d="M485 271 c-7 -12 12 -24 25 -16 11 7 4 25 -10 25 -5 0 -11 -4 -15 -9z"/>
 </g>
<g id="layer2" fill="#000000" stroke="none">
 <path d="M165 808 c-3 -7 -4 -135 -3 -283 l3 -270 173 0 174 0 29 33 c27 30 29 38 29 116 0 67 -4 88 -19 107 -18 23 -18 24 1 49 16 23 18 41 16 140 l-3 115 -65 0 -65 0 -3 -102 -3 -103 -64 0 -64 0 -3 103 -3 102 -63 3 c-44 2 -64 -1 -67 -10z m265 -362 c0 -29 -16 -36 -81 -36 -48 0 -49 1 -49 30 l0 30 65 0 c62 0 65 -1 65 -24z"/>
 <path d="M607 814 c-4 -4 -7 -115 -7 -246 0 -260 4 -283 55 -306 16 -7 78 -12 163 -12 159 0 196 13 207 72 3 18 5 137 3 263 l-3 230 -65 0 -65 0 -3 -107 -3 -108 -74 0 -74 0 -3 108 -3 107 -60 3 c-34 2 -64 0 -68 -4z m283 -389 c0 -24 -2 -25 -75 -25 -73 0 -75 1 -75 25 0 24 2 25 75 25 73 0 75 -1 75 -25z"/>
 <path d="M1125 811 c-11 -5 -29 -19 -40 -31 -18 -20 -20 -38 -23 -234 -2 -197 -1 -213 18 -244 11 -18 32 -37 46 -43 15 -5 86 -8 158 -7 l131 3 0 75 0 75 -108 3 -108 3 3 122 3 122 105 5 105 5 0 75 0 75 -135 2 c-74 1 -144 -2 -155 -6z"/>
 <path d="M1455 808 c-3 -7 -4 -135 -3 -283 l3 -270 65 0 65 0 0 280 0 280 -63 3 c-44 2 -64 -1 -67 -10z"/>
 <path d="M1625 808 c-3 -7 -4 -135 -3 -283 l3 -270 41 -3 c39 -3 42 -1 77 50 40 59 155 219 165 230 4 4 7 -57 7 -135 l0 -142 65 0 65 0 0 280 0 280 -40 0 c-39 0 -40 -1 -140 -135 l-100 -134 -5 134 -5 135 -63 3 c-44 2 -64 -1 -67 -10z"/>
 <path d="M2131 806 c-46 -26 -50 -47 -51 -269 0 -296 -6 -289 245 -285 l160 3 0 75 0 75 -132 3 -133 3 0 124 0 125 65 0 c62 0 65 -1 65 -24 0 -22 -5 -25 -42 -28 l-43 -3 0 -65 0 -65 110 0 110 0 0 170 0 170 -165 2 c-123 2 -171 -1 -189 -11z"/>
 </g>
<g id="layer3" fill="#ffffff" stroke="none">
 <path d="M0 550 l0 -550 1300 0 1300 0 0 550 0 550 -1300 0 -1300 0 0 -550z m292 148 l3 -103 58 -3 c82 -4 87 2 87 114 l0 94 60 0 60 0 0 -103 c0 -109 -2 -114 -55 -152 -20 -15 -20 -15 3 -21 54 -15 73 -151 29 -215 l-23 -34 -172 -3 -172 -2 0 265 0 265 60 0 59 0 3 -102z m440 -5 l3 -108 85 0 85 0 3 108 3 107 49 0 49 0 3 -237 c3 -216 1 -241 -15 -265 l-18 -28 -150 0 c-163 0 -201 9 -213 52 -3 13 -6 125 -6 251 l0 227 60 0 59 0 3 -107z m668 47 l0 -59 -102 -3 -103 -3 -3 -129 c-2 -86 1 -133 9 -142 8 -10 37 -14 105 -14 l94 0 0 -60 0 -60 -140 0 c-194 0 -180 -20 -180 265 0 285 -14 265 180 265 l140 0 0 -60z m170 -205 l0 -265 -50 0 -50 0 0 265 0 265 50 0 50 0 0 -265z m180 136 c0 -72 4 -132 8 -135 4 -2 46 47 92 110 107 147 115 154 150 154 l30 0 0 -265 0 -265 -50 0 -50 0 0 134 c0 74 -4 137 -8 140 -9 5 -72 -56 -72 -69 0 -10 -103 -149 -113 -154 -5 -2 -12 -14 -17 -27 -8 -20 -16 -24 -50 -24 l-40 0 0 265 0 265 60 0 60 0 0 -129z m730 -26 l0 -155 -100 0 -100 0 0 49 0 50 38 3 c36 3 37 4 37 43 l0 40 -62 3 c-84 4 -93 -9 -93 -140 0 -53 4 -108 10 -122 l10 -26 130 0 130 0 0 -60 0 -60 -160 0 c-174 0 -212 9 -224 52 -8 32 -6 409 3 432 15 38 48 45 219 46 l162 0 0 -155z"/>
 <path d="M297 483 c-12 -11 -8 -68 5 -81 15 -15 92 -16 119 -2 22 12 26 59 7 78 -13 13 -120 17 -131 5z"/>
 <path d="M737 464 c-12 -13 -8 -61 7 -73 9 -7 42 -11 88 -9 l73 3 0 40 0 40 -80 3 c-45 1 -84 0 -88 -4z"/>
 </g>

</svg>