<!DOCTYPE svg PUBLIC "-//W3C//DTD SVG 20010904//EN" "http://www.w3.org/TR/2001/REC-SVG-20010904/DTD/svg10.dtd">
<svg version="1.0" xmlns="http://www.w3.org/2000/svg" width="260px" height="110px" viewBox="0 0 2600 1100" preserveAspectRatio="xMidYMid meet">
<g id="layer1" fill="#000000" stroke="none">
 <path d="M645 818 c-3 -7 -4 -135 -3 -283 l3 -270 160 -3 c231 -4 245 5 245 154 0 78 -3 93 -20 109 l-20 18 20 22 c19 20 20 33 18 141 l-3 119 -65 0 -65 0 -3 -102 -3 -103 -64 0 -64 0 -3 103 -3 102 -63 3 c-44 2 -64 -1 -67 -10z m263 -365 c-3 -27 -6 -28 -65 -31 l-63 -3 0 31 0 30 66 0 65 0 -3 -27z"/>
 <path d="M1197 824 c-4 -4 -7 -96 -7 -205 l0 -198 -52 -3 -53 -3 0 -75 0 -75 170 0 170 0 0 75 0 75 -47 3 -48 3 -2 202 -3 202 -60 3 c-34 2 -64 0 -68 -4z"/>
 <path d="M1464 816 c-3 -7 -4 -42 -2 -77 l3 -64 130 -5 130 -5 0 -25 c0 -25 -1 -25 -108 -30 -104 -5 -110 -6 -133 -33 -22 -26 -24 -36 -24 -137 0 -107 1 -110 29 -142 l29 -33 174 0 173 0 0 75 0 75 -132 3 -133 3 0 29 0 30 95 0 c154 0 175 21 175 173 0 103 -18 149 -66 167 -14 6 -95 10 -180 10 -121 0 -156 -3 -160 -14z"/>
 </g>
<g id="layer2" fill="#ffffff" stroke="none">
 <path d="M0 550 l0 -550 1300 0 1300 0 0 550 0 550 -1300 0 -1300 0 0 -550z m762 158 l3 -103 68 -3 c42 -2 74 2 83 9 10 8 14 37 14 105 l0 94 50 0 50 0 0 -115 c0 -112 0 -115 -26 -132 l-26 -17 26 -19 c25 -18 26 -23 26 -110 0 -51 -4 -97 -8 -103 -18 -28 -56 -34 -206 -34 l-156 0 0 265 0 265 50 0 49 0 3 -102z m550 -100 l3 -203 48 -3 47 -3 0 -60 0 -59 -155 0 -155 0 0 59 0 60 53 3 52 3 3 203 2 202 50 0 50 0 2 -202z m486 196 c38 -11 52 -53 52 -159 0 -88 -2 -98 -25 -120 -22 -23 -31 -25 -123 -25 -106 0 -122 -7 -122 -50 0 -45 15 -50 147 -50 l123 0 0 -61 0 -60 -166 3 c-209 4 -204 0 -204 157 0 146 -1 145 140 149 106 4 112 5 122 28 8 18 8 31 0 49 -11 25 -13 25 -137 25 l-125 0 0 60 0 60 148 0 c81 0 157 -3 170 -6z"/>
 <path d="M767 493 c-12 -11 -8 -68 5 -81 15 -15 112 -16 139 -2 22 12 26 59 7 78 -13 13 -140 17 -151 5z"/>
 </g>

</svg>